# xmcd
#
# Track frame offsets:
# 150
# 14395
# 28747
# 40900
# 52010
# 63397
# 74217
# 88150
# 100757
# 115572
# 125287
# 138205
#
# Disc length: 1985 seconds
#
#
# Revision: 0
# Processed by: cddbd v1.5.1PL2 Copyright (c) Steve Scherf et al.
# Submitted via: FreeRIP 2.943 
#
DISCID=a607bf0c
DTITLE=Elis Regina - 1972
DYEAR=1900
DGENRE=Blues
TTITLE0=20 Anos Blue
TTITLE1=Bala com Bala
TTITLE2=Nada será como antes
TTITLE3=Mucuripe
TTITLE4=Olhos Abertos
TTITLE5=Vida de Bailarina
TTITLE6=Aguas de Março
TTITLE7=Atrás da Porta
TTITLE8=Cais
TTITLE9=Me deixe em Paz
TTITLE10=Casa no Campo
TTITLE11=Boa Noite Amor
EXTD=
EXTT0=
EXTT1=
EXTT2=
EXTT3=
EXTT4=
EXTT5=
EXTT6=
EXTT7=
EXTT8=
EXTT9=
EXTT10=
EXTT11=
PLAYORDER=
